<svg width="36" height="26" viewBox="0 0 36 26" fill="none" xmlns="http://www.w3.org/2000/svg">
<path d="M22.45 0L8.77694 4.69509V9.76598H1.24236C0.983728 9.76598 0.775452 9.9745 0.775452 10.2334C0.775452 10.4924 0.983728 10.7009 1.24236 10.7009H8.77694V12.8846H5.17902C4.92039 12.8846 4.71211 13.0931 4.71211 13.352C4.71211 13.611 4.92039 13.8195 5.17902 13.8195H8.77694V16.0032H2.2723C2.01367 16.0032 1.80539 16.2117 1.80539 16.4706C1.80539 16.7296 2.01367 16.9381 2.2723 16.9381H8.77694V19.9513L22.2257 25.0978L22.5003 25.2032L35.5485 19.8734V5.11671L22.45 0ZM22.4317 0.999054L27.0229 2.79093L15.689 7.15607L10.4798 5.10296L22.4317 0.999054ZM22.0082 24.014L9.71304 19.312V16.9427H12.3222C12.5809 16.9427 12.7891 16.7341 12.7891 16.4752C12.7891 16.2163 12.5809 16.0078 12.3222 16.0078H9.71304V13.8241H15.2289C15.4876 13.8241 15.6958 13.6155 15.6958 13.3566C15.6958 13.0977 15.4876 12.8892 15.2289 12.8892H9.71304V10.7055H11.29C11.5486 10.7055 11.7569 10.4969 11.7569 10.238C11.7569 9.97908 11.5486 9.77056 11.29 9.77056H9.71304V5.80872L22.0655 10.6803L22.0105 24.0185L22.0082 24.014ZM16.9775 7.66705L28.316 3.29734L33.9052 5.47876L22.5369 9.85763L16.9798 7.66705H16.9775ZM34.6147 19.2387L22.9329 24.0094L22.9878 10.678L34.6033 6.20284L34.6124 19.2387H34.6147Z" fill="black"/>
</svg>
