<svg width="30" height="26" viewBox="0 0 30 26" fill="none" xmlns="http://www.w3.org/2000/svg">
<path d="M15.5522 24.786C9.07727 24.786 3.78338 19.7243 3.40116 13.3358L4.75382 14.6901C4.86825 14.8046 5.05593 14.8046 5.17266 14.6901C5.2871 14.5755 5.2871 14.3876 5.17266 14.2707L3.2913 12.3872C3.17686 12.2726 2.98919 12.2726 2.87246 12.3872L0.991102 14.2707C0.876664 14.3853 0.876664 14.5732 0.991102 14.6901C1.10554 14.8046 1.29322 14.8046 1.40994 14.6901L2.80608 13.2923C3.16771 20.0267 8.73625 25.3772 15.5522 25.3772C21.2008 25.3772 25.9935 21.7041 27.6757 16.6126L27.115 16.4269C25.5105 21.2824 20.9399 24.786 15.5545 24.786H15.5522Z" fill="black"/>
<path d="M15.5523 25.5491C8.80279 25.5491 3.21136 20.3659 2.65977 13.6796L1.52912 14.8115C1.35289 14.988 1.04391 14.988 0.867672 14.8115C0.778411 14.7222 0.730347 14.6053 0.730347 14.4816C0.730347 14.3578 0.778411 14.2387 0.867672 14.1516L2.74903 12.2681C2.92526 12.0916 3.23424 12.0916 3.41048 12.2681L5.29184 14.1516C5.47494 14.3349 5.47494 14.6305 5.29184 14.8138C5.1156 14.9903 4.80662 14.9903 4.63039 14.8138L3.60731 13.7896C4.20697 19.8985 9.36582 24.6165 15.55 24.6165C20.7386 24.6165 25.3207 21.3054 26.948 16.3766L27.003 16.2139L27.891 16.5072L27.8361 16.6699C26.0806 21.9836 21.1438 25.5514 15.55 25.5514L15.5523 25.5491ZM2.95731 12.8982L2.9779 13.2832C3.33495 19.9695 8.86001 25.2054 15.5523 25.2054C20.9401 25.2054 25.703 21.8026 27.4584 16.7226L27.2227 16.6447C25.5015 21.6239 20.8348 24.9579 15.5523 24.9579C9.03166 24.9579 3.62104 19.8572 3.22967 13.3473L3.2022 12.8959L4.87528 14.5709C4.92335 14.6191 5.00345 14.6168 5.05152 14.5709C5.09958 14.5228 5.09958 14.4426 5.05152 14.3945L3.17016 12.511C3.1221 12.4628 3.04199 12.4628 2.99393 12.511L1.11257 14.3922C1.08968 14.4151 1.07595 14.4472 1.07595 14.4793C1.07595 14.5114 1.08968 14.5434 1.11257 14.5664C1.16063 14.6145 1.24074 14.6145 1.2888 14.5664L2.95731 12.8959V12.8982Z" fill="black"/>
<path d="M29.487 10.859C29.3725 10.7444 29.1849 10.7444 29.0681 10.859L27.672 12.2568C27.3104 5.52231 21.7441 0.171875 14.9259 0.171875C9.27497 0.171875 4.4846 3.845 2.80237 8.93651L3.36311 9.12211C4.96753 4.26662 9.53817 0.763058 14.9259 0.763058C21.4008 0.763058 26.6947 5.82478 27.0769 12.2132L25.7243 10.859C25.6098 10.7444 25.4221 10.7444 25.3054 10.859C25.1887 10.9736 25.191 11.1615 25.3054 11.2783L27.1868 13.1619C27.3012 13.2764 27.4889 13.2764 27.6056 13.1619L29.487 11.2783C29.6014 11.1638 29.6014 10.9759 29.487 10.859Z" fill="black"/>
<path d="M27.3947 13.4208C27.2757 13.4208 27.1544 13.3749 27.0651 13.2833L25.1838 11.3975C25.0945 11.3081 25.0464 11.1912 25.0464 11.0675C25.0464 10.9438 25.0945 10.8246 25.1838 10.7375C25.3669 10.5542 25.6621 10.5542 25.8452 10.7375L26.8683 11.7618C26.2686 5.65519 21.1098 0.934894 14.9256 0.934894C9.73695 0.934894 5.15487 4.24598 3.52756 9.1748L3.47263 9.33749L2.58459 9.04419L2.63952 8.88149C4.395 3.57001 9.33184 0 14.9256 0C21.6751 0 27.2665 5.18316 27.8181 11.8695L28.9488 10.7375C29.125 10.5611 29.434 10.5611 29.6102 10.7375C29.6972 10.8269 29.7475 10.9438 29.7475 11.0675C29.7475 11.1912 29.6995 11.3104 29.6102 11.3975L27.7289 13.281C27.6373 13.3727 27.5183 13.4185 27.3993 13.4185L27.3947 13.4208ZM25.5133 10.9438C25.4813 10.9438 25.4493 10.9575 25.4264 10.9804C25.4035 11.0033 25.3898 11.0354 25.3898 11.0675C25.3898 11.0996 25.4035 11.1317 25.4264 11.1546L27.3077 13.0404C27.3558 13.0885 27.4359 13.0885 27.484 13.0404L29.3653 11.1569C29.3882 11.1339 29.4019 11.1019 29.4019 11.0698C29.4019 11.0377 29.3882 11.0056 29.3653 10.9827C29.3195 10.9346 29.2372 10.9346 29.1891 10.9827L27.5206 12.6532L27.5 12.2682C27.1429 5.58187 21.6179 0.343711 14.9256 0.343711C9.53783 0.343711 4.77493 3.74645 3.01946 8.8265L3.2552 8.90441C4.97634 3.92518 9.6454 0.591183 14.9256 0.591183C21.4462 0.591183 26.8568 5.69186 27.2482 12.2017L27.2757 12.6532L25.6026 10.9781C25.5797 10.9552 25.5477 10.9415 25.5156 10.9415L25.5133 10.9438Z" fill="black"/>
</svg>
