<svg width="24" height="25" viewBox="0 0 24 25" fill="none" xmlns="http://www.w3.org/2000/svg">
<path d="M11.7529 25H11.7158C11.2258 25 10.745 24.8705 10.3247 24.6227L5.94922 22.1183C4.24457 21.1865 2.81163 19.8184 1.81067 18.1685C0.809706 16.5186 0.268582 14.63 0.247681 12.7119V5.85542C0.247681 5.29408 0.421862 4.75547 0.749323 4.2964C1.07678 3.83733 1.53198 3.49189 2.07078 3.29644L10.7752 0.167038C11.393 -0.0556793 12.0734 -0.0556793 12.6935 0.167038L21.398 3.29644C21.9368 3.49189 22.392 3.83733 22.7194 4.2964C23.0469 4.75547 23.2187 5.29408 23.2211 5.85542V12.7074C23.2002 14.6323 22.659 16.5186 21.6581 18.1685C20.6571 19.8184 19.2219 21.1865 17.5102 22.1229L13.1371 24.625C12.7214 24.8705 12.243 25 11.7529 25ZM11.7344 24.0614H11.739C12.0549 24.0591 12.3754 23.9796 12.6494 23.8182L17.0365 21.307C18.6087 20.4457 19.9209 19.1957 20.8359 17.6867C21.751 16.1777 22.2456 14.4528 22.2642 12.7006V5.85314C22.2642 5.48498 22.1504 5.13045 21.9344 4.83046C21.7208 4.5282 21.4189 4.30094 21.0682 4.17367L12.3637 1.04654C11.9573 0.901095 11.5114 0.901095 11.105 1.04654L2.40056 4.17595C2.04988 4.30321 1.75029 4.53048 1.5343 4.83273C1.32064 5.13499 1.20684 5.48725 1.20452 5.85542V12.7074C1.2231 14.4573 1.71777 16.1799 2.63281 17.689C3.54784 19.198 4.85768 20.4479 6.423 21.3047L10.8124 23.816C11.0934 23.9819 11.4046 24.0637 11.7274 24.0614H11.732H11.7344Z" fill="black"/>
<path d="M10.9386 16H10.934H10.9294C10.7798 16 10.6348 15.9505 10.5174 15.8621L7.46513 13.4539C7.33623 13.3526 7.25797 13.2083 7.24185 13.0532C7.22804 12.8981 7.27868 12.743 7.38687 12.6224C7.49506 12.5018 7.64698 12.4285 7.81501 12.4134C7.98075 12.4005 8.14648 12.4479 8.27538 12.5492L10.6716 14.4361L10.8673 14.5912L11.0399 14.4124L15.1326 10.1947C15.2454 10.0784 15.4019 10.0095 15.5677 10.0009C15.7357 9.99225 15.8991 10.0483 16.0211 10.1517C16.1454 10.2572 16.2191 10.4037 16.2283 10.5588C16.2375 10.7139 16.1776 10.8668 16.0672 10.9831L11.4335 15.8018C11.3714 15.8643 11.2954 15.916 11.2102 15.9483C11.1251 15.9828 11.033 15.9978 10.9409 15.9935L10.9386 16Z" fill="black"/>
</svg>
